<svg width="39" height="78" viewBox="0 0 39 78" fill="none" xmlns="http://www.w3.org/2000/svg">
<g filter="url(#filter0_d)">
<g clip-path="url(#clip0)">
<path d="M28.8857 37.9015C31.8078 36.1457 33.9169 33.2696 34.7409 29.9168C35.0883 28.3772 35.1431 26.784 34.9024 25.2233L31.7967 2.01717C31.6378 0.863299 30.6706 0.00378581 29.5269 0H9.76826C8.62457 0.00378581 7.65745 0.863299 7.49854 2.01717L4.39285 25.2233C4.15206 26.7836 4.20687 28.3764 4.55432 29.9157C5.3779 33.2689 7.48707 36.1455 10.4096 37.9015C13.6111 39.7926 15.5984 43.2618 15.6395 47.0318V60.9152C15.6316 61.5046 15.1989 61.9981 14.6249 62.0725C10.0568 62.7772 5.33304 65.065 5.33304 67.6667C5.33304 68.9553 6.35845 70 7.62337 70H31.6718C32.9368 70 33.9622 68.9553 33.9622 67.6667C33.9622 65.065 29.2384 62.7772 24.6703 62.0667C24.0971 61.9924 23.6647 61.5002 23.6557 60.9117V47.0283C23.698 43.2596 25.6851 39.7919 28.8857 37.9015ZM9.76826 2.33333H29.5269L31.7028 18.5558C30.9804 18.2314 30.305 17.8078 29.6953 17.297C26.4429 14.4582 21.6449 14.4582 18.3925 17.297C15.956 19.5145 12.2735 19.5145 9.83697 17.297C9.24179 16.8187 8.60645 16.3948 7.93829 16.03L9.76826 2.33333ZM24.3256 64.3767C29.0551 65.1093 31.531 67.0833 31.6718 67.6667L7.62337 67.7017C7.76651 67.0775 10.2424 65.1093 14.9719 64.3767C16.6678 64.1342 17.9294 62.6563 17.9299 60.9117V47.0283C17.8872 42.4321 15.4708 38.1988 11.5708 35.8878C9.17945 34.4512 7.45322 32.0979 6.77823 29.3545C6.50173 28.1015 6.46286 26.8062 6.66372 25.5383L7.60161 18.5383C7.89134 18.7355 8.17419 18.9467 8.46048 19.166C10.02 20.56 12.0305 21.3172 14.105 21.2917C16.1841 21.3166 18.1988 20.5579 19.7621 19.1613C22.1985 16.9445 25.8802 16.9445 28.3165 19.1613C29.3936 20.088 30.6673 20.747 32.0372 21.0863L32.6326 25.5372C32.8335 26.8054 32.7946 28.1011 32.5181 29.3545C31.843 32.0978 30.1168 34.4511 27.7256 35.8878C23.8241 38.1991 21.4071 42.4341 21.3654 47.0318V60.9152C21.3677 62.6592 22.6301 64.1354 24.3256 64.3767V64.3767Z" fill="#DA9F89"/>
<path d="M13.8931 31.8686C12.5629 31.0707 11.6018 29.7631 11.2249 28.2379C11.0941 27.5556 11.086 26.8548 11.2009 26.1694C11.2561 25.7564 11.0908 25.3447 10.7673 25.0894C10.4438 24.8342 10.0112 24.7741 9.63246 24.9319C9.25372 25.0897 8.98638 25.4414 8.93115 25.8544C8.77262 26.8312 8.79515 27.8296 8.99757 28.7979C9.52297 30.9323 10.8665 32.7629 12.7274 33.8799C13.2725 34.2066 13.9744 34.0212 14.2951 33.4658C14.6158 32.9104 14.4337 32.1953 13.8886 31.8686H13.8931Z" fill="#DA9F89"/>
</g>
</g>
<defs>
<filter id="filter0_d" x="0" y="0" width="39" height="78" filterUnits="userSpaceOnUse" color-interpolation-filters="sRGB">
<feFlood flood-opacity="0" result="BackgroundImageFix"/>
<feColorMatrix in="SourceAlpha" type="matrix" values="0 0 0 0 0 0 0 0 0 0 0 0 0 0 0 0 0 0 127 0"/>
<feOffset dy="4"/>
<feGaussianBlur stdDeviation="2"/>
<feColorMatrix type="matrix" values="0 0 0 0 0 0 0 0 0 0 0 0 0 0 0 0 0 0 0.25 0"/>
<feBlend mode="normal" in2="BackgroundImageFix" result="effect1_dropShadow"/>
<feBlend mode="normal" in="SourceGraphic" in2="effect1_dropShadow" result="shape"/>
</filter>
<clipPath id="clip0">
<rect x="4" width="31" height="70" fill="white"/>
</clipPath>
</defs>
</svg>
