<svg width="34" height="78" viewBox="0 0 34 78" fill="none" xmlns="http://www.w3.org/2000/svg">
<g filter="url(#filter0_d)">
<g clip-path="url(#clip0)">
<path d="M10.2008 24.85C9.62657 27.0682 8.77462 29.2069 7.66464 31.2165C5.25019 35.5992 3.98357 40.5095 3.98024 45.5V64.1667C3.98414 67.3867 6.6237 69.9961 9.88095 70H24.0427C27.2999 69.9961 29.9395 67.3867 29.9434 64.1667V45.5C29.9411 43.0151 29.6275 40.54 29.0099 38.1313C28.3882 35.7235 27.464 33.4021 26.259 31.2212C24.0335 27.1831 22.8659 22.6585 22.8625 18.06V13.6092C24.5076 12.8402 25.4478 11.0957 25.1758 9.31705C24.9037 7.53837 23.4838 6.1466 21.6824 5.89283V2.33333C21.6824 1.04467 20.6256 0 19.3221 0H14.6015C13.298 0 12.2412 1.04467 12.2412 2.33333V5.8905C10.2044 6.16056 8.68792 7.88507 8.70081 9.91667C8.70449 11.493 9.62212 12.9277 11.0611 13.6068V18.06C11.0581 20.3497 10.7691 22.6303 10.2008 24.85V24.85ZM27.5831 58.3333H6.34052V46.6667H27.5831V58.3333ZM24.0427 67.6667H9.88095C7.92563 67.6667 6.34052 66.0997 6.34052 64.1667V60.6667H27.5831V64.1667C27.5831 66.0997 25.998 67.6667 24.0427 67.6667ZM14.6015 2.33333H19.3221V5.83333H14.6015V2.33333ZM12.4891 25.4263C13.1058 23.0183 13.419 20.5441 13.4214 18.06V14H14.6015C15.2533 14 15.7817 13.4777 15.7817 12.8333C15.7817 12.189 15.2533 11.6667 14.6015 11.6667H12.5646C12.5339 11.6573 12.5079 11.6387 12.4749 11.6317C11.5832 11.4527 10.974 10.6345 11.066 9.73963C11.1581 8.84472 11.9214 8.16455 12.8313 8.16667H21.0923C22.07 8.16667 22.8625 8.95017 22.8625 9.91667C22.8618 10.3809 22.6766 10.8263 22.3468 11.1568C22.1006 11.3995 21.7873 11.5647 21.4463 11.6317C21.4133 11.6387 21.3885 11.6573 21.3566 11.6667H19.3221C18.6703 11.6667 18.1419 12.189 18.1419 12.8333C18.1419 13.4777 18.6703 14 19.3221 14H20.5022V18.06C20.5062 23.0486 21.7728 27.9569 24.1866 32.3377C25.2964 34.3474 26.1484 36.486 26.7228 38.7042C27.1911 40.5479 27.4679 42.4341 27.5489 44.3333H6.37829C6.55787 40.1339 7.70673 36.0307 9.73697 32.3377C10.9423 30.1564 11.8668 27.8346 12.4891 25.4263V25.4263Z" fill="#DA9F89"/>
<path d="M14.6028 51.3333H19.3234C19.9752 51.3333 20.5036 50.811 20.5036 50.1667C20.5036 49.5223 19.9752 49 19.3234 49H14.6028C13.9511 49 13.4227 49.5223 13.4227 50.1667C13.4227 50.811 13.9511 51.3333 14.6028 51.3333Z" fill="#DA9F89"/>
<path d="M14.6028 56.0001H19.3234C19.9752 56.0001 20.5036 55.4777 20.5036 54.8334C20.5036 54.1891 19.9752 53.6667 19.3234 53.6667H14.6028C13.9511 53.6667 13.4227 54.1891 13.4227 54.8334C13.4227 55.4777 13.9511 56.0001 14.6028 56.0001Z" fill="#DA9F89"/>
</g>
</g>
<defs>
<filter id="filter0_d" x="0" y="0" width="34" height="78" filterUnits="userSpaceOnUse" color-interpolation-filters="sRGB">
<feFlood flood-opacity="0" result="BackgroundImageFix"/>
<feColorMatrix in="SourceAlpha" type="matrix" values="0 0 0 0 0 0 0 0 0 0 0 0 0 0 0 0 0 0 127 0"/>
<feOffset dy="4"/>
<feGaussianBlur stdDeviation="2"/>
<feColorMatrix type="matrix" values="0 0 0 0 0 0 0 0 0 0 0 0 0 0 0 0 0 0 0.25 0"/>
<feBlend mode="normal" in2="BackgroundImageFix" result="effect1_dropShadow"/>
<feBlend mode="normal" in="SourceGraphic" in2="effect1_dropShadow" result="shape"/>
</filter>
<clipPath id="clip0">
<rect x="4" width="26" height="70" fill="white"/>
</clipPath>
</defs>
</svg>
