<svg id="outline" height="512" viewBox="0 0 512 512" width="512" xmlns="http://www.w3.org/2000/svg"><path d="m455.99944 232.0023a39.976 39.976 0 0 0 -60.42382-34.37463 39.70891 39.70891 0 0 0 -19.57618-18.32867v-22.35236l32.32227 16.16113a27.41651 27.41651 0 0 0 39.67773-24.522 30.01024 30.01024 0 0 0 -14.83789-25.834l-181.13086-105.65962a8.00093 8.00093 0 0 0 -4.03125-1.08985h-84a28 28 0 0 0 0 56h45.292a90.87563 90.87563 0 0 0 -25.292 62.64746v29.88056l-41.251-64.82294a7.99969 7.99969 0 0 0 -13.9043.71728l-13.12988 26.26026-25.77442-6.44385a8.00058 8.00058 0 0 0 -9.94043 7.76123v25.75391l-25.94041 6.48486a7.99979 7.99979 0 0 0 -3.18066 13.90723l31.02441 25.854h-25.90331a7.99941 7.99941 0 0 0 -3.57812.84473l-32 16a8 8 0 0 0 -.85938 13.81152l15.87989 10.58692-17.09961 17.10009a8.00012 8.00012 0 0 0 3.12695 13.2461l15.95117 5.31689-12.84863 32.12256a7.99968 7.99968 0 0 0 8.74316 10.8623l48-8a8.00008 8.00008 0 0 0 4.83008-2.76953l14.94629-17.93554-12.75391 42.51513a7.99527 7.99527 0 0 0 -.18261 3.86768l8 40a7.99975 7.99975 0 0 0 12.28222 5.0874l15.28516-10.18994 4.6875 14.06348a8.00014 8.00014 0 0 0 12.02734 4.12646l17.89747-11.93115 27.418 34.27246a8.00025 8.00025 0 0 0 12.49414 0l27.418-34.27246 17.89746 11.93115 8.875-13.3125-24-16a8.00019 8.00019 0 0 0 -10.68457 1.65869l-17.75293 22.19141v-168.54822l11.002 8.80164 9.99609-12.49414-20.99805-16.79859v-1.82739l47.16309-74.11377 9.68164 19.36231a8.00562 8.00562 0 0 0 9.0957 4.18359l22.05957-5.51514v21.75391a8.00006 8.00006 0 0 0 6.05957 7.76123l16 4 3.88086-15.52246-9.94043-2.48487v-25.7539a8.00056 8.00056 0 0 0 -9.94043-7.76123l-25.77452 6.44388-13.12988-26.26026a7.99969 7.99969 0 0 0 -13.9043-.71728l-41.251 64.82293v-29.8786a74.807 74.807 0 0 1 32.09839-61.1933l95.90161 59.01606v59.52975h.06348a40.02911 40.02911 0 0 0 -3.58032 5.65955 39.97013 39.97013 0 0 0 -60.21948 29.80987 39.995 39.995 0 1 0 -28.0791 74.74811 39.97487 39.97487 0 0 0 27.8357 56.9812c-.00513.26746-.02027.53247-.02027.80127a39.8875 39.8875 0 0 0 12.70166 29.19849 39.979 39.979 0 0 0 28.24756 58.1665 39.9973 39.9973 0 1 0 79.05078 8.635c0-.27624-.01513-.54883-.021-.82373a39.97164 39.97164 0 0 0 43.83594-56.95874 39.985 39.985 0 0 0 12.15722-70.21753 40.23219 40.23219 0 0 0 12.74488-16.14795c1.09033.08887 2.18432.14795 3.28295.14795a40 40 0 0 0 0-80zm-264-40 .00147-.001.00146.001zm-36.4375 169.34375-15.28515 10.18995-4.6875-14.06347a8.00016 8.00016 0 0 0 -12.02735-4.12647l-14.06054 9.37354-5.26563-26.3296 23.42578-78.08887a7.99961 7.99961 0 0 0 -13.80761-7.42041l-38.09864 45.71875-31.04785 5.17432 10.71973-26.8003a7.999 7.999 0 0 0 -4.89746-10.56049l-11.72072-3.90679 14.84767-14.84721a8.00026 8.00026 0 0 0 -1.21973-12.313l-12.52929-8.35351 17.98047-8.99024h46.11132a7.99976 7.99976 0 0 0 5.1211-14.146l-35.89649-29.91401 16.71582-4.17871a8 8 0 0 0 6.05957-7.76123v-21.7539l22.05957 5.51513a8.00118 8.00118 0 0 0 9.09571-4.18359l9.68164-19.36231 47.16308 74.11377v1.82617l-36.99707 29.59766 9.99414 12.49414 27.00293-21.60237v27.51055l-36.99707 29.59766 9.99414 12.49414 27.00293-21.60229v27.51049l-36.99707 29.59766 9.99414 12.49414 27.00293-21.60229v72.54907l-17.75293-22.19141a7.99949 7.99949 0 0 0 -10.68457-1.65867zm284.4375-129.34375a24 24 0 1 1 -24-24 24.0275 24.0275 0 0 1 24 24zm-160 128a24 24 0 1 1 24 24 24.0275 24.0275 0 0 1 -24-24zm0-64a24 24 0 1 1 24 24 24.0275 24.0275 0 0 1 -24-24zm56 32a24 24 0 1 1 24 24 24.0275 24.0275 0 0 1 -24-24zm48-64a24 24 0 1 1 -24-24 24.0275 24.0275 0 0 1 24 24zm-24 152a24 24 0 1 1 24-24 24.0275 24.0275 0 0 1 -24 24zm23.05274-206.64673a39.75144 39.75144 0 0 0 -6.78906 18.11615 39.8545 39.8545 0 0 0 -32.52735 0 39.75223 39.75223 0 0 0 -6.78125-18.10492 24.14217 24.14217 0 0 1 23.04492-17.3645 23.85577 23.85577 0 0 1 23.05274 17.35327zm-146.86035-152.16675a7.99858 7.99858 0 0 0 -4.19239-1.18652h-68a12 12 0 0 1 0-24h81.83692l179.26269 104.56983a13.95459 13.95459 0 0 1 6.90039 12.01367 11.4163 11.4163 0 0 1 -16.52144 10.21142l-39.47856-19.73922v-19.0557h-16v56a39.54705 39.54705 0 0 0 -16 3.3913v-51.3913a8 8 0 0 0 -3.80761-6.81348zm67.80761 150.81348a24 24 0 1 1 -24 24 24.0275 24.0275 0 0 1 24-24zm-80 56a24 24 0 1 1 24 24 24.0275 24.0275 0 0 1 -24-24zm43.541 79.57813a23.98822 23.98822 0 0 1 -12.90112-40.13953 39.64555 39.64555 0 0 0 9.62378-2.90808 40.00626 40.00626 0 0 0 15.76416 27.46948 40.23982 40.23982 0 0 0 -12.4868 15.57813zm44.459 88.42187a23.98131 23.98131 0 0 1 -21.62255-34.39172 39.91576 39.91576 0 0 0 29.88623-1.07776 39.84485 39.84485 0 0 0 9.81323 21.97339 40.19078 40.19078 0 0 0 -18.05444 13.49536zm32 48a24 24 0 1 1 24-24 24.0275 24.0275 0 0 1 -24 24zm48-40a24.04692 24.04692 0 0 1 -13.45971-4.13611 40.20893 40.20893 0 0 0 -4.61719-6.36779 40.10035 40.10035 0 0 0 25.81323-32.96558 39.64555 39.64555 0 0 0 9.62378 2.90808 23.99253 23.99253 0 0 1 -17.36011 40.5614zm48-80a24 24 0 1 1 -24-24 24.0275 24.0275 0 0 1 24 24zm-24-40a24 24 0 1 1 24-24 24.0275 24.0275 0 0 1 -24 24zm40-24a39.96363 39.96363 0 0 0 -16.02783-32 40.23537 40.23537 0 0 0 12.564-15.74859 24.27035 24.27035 0 0 1 3.46386-.25141 24 24 0 0 1 0 48z"/></svg>