<?xml version="1.0" encoding="utf-8"?>
<!-- Generator: Adobe Illustrator 24.0.2, SVG Export Plug-In . SVG Version: 6.00 Build 0)  -->
<svg version="1.1" id="Слой_1" xmlns="http://www.w3.org/2000/svg" xmlns:xlink="http://www.w3.org/1999/xlink" x="0px" y="0px"
	 viewBox="0 0 108.6 144.8" style="enable-background:new 0 0 108.6 144.8;" xml:space="preserve">
<style type="text/css">
	.st0{fill:none;}
	.st1{fill:#DB9F89;}
</style>
<rect x="88.7" y="-14.4" class="st0" width="57" height="70"/>
<circle class="st1" cx="64.8" cy="9.2" r="8.3"/>
<circle class="st1" cx="55" cy="25.2" r="8.3"/>
<circle class="st1" cx="45.3" cy="42.4" r="8.3"/>
<circle class="st1" cx="64.8" cy="42.4" r="8.3"/>
<circle class="st1" cx="74.4" cy="58.1" r="8.3"/>
<circle class="st1" cx="55" cy="58.1" r="8.3"/>
<circle class="st1" cx="45.3" cy="74.3" r="8.3"/>
<circle class="st1" cx="64.8" cy="74.3" r="8.3"/>
<circle class="st1" cx="55" cy="90.5" r="8.3"/>
<circle class="st1" cx="35.5" cy="58.1" r="8.3"/>
<polygon class="st1" points="0.7,124.5 5.5,124.5 10.2,135.6 15.2,124.5 20,124.5 12,143.6 8.9,143.6 "/>
<rect x="23.8" y="124.5" class="st1" width="4.7" height="19.1"/>
<polygon class="st1" points="32.3,124.5 37.1,124.5 41.8,135.6 46.8,124.5 51.6,124.5 43.6,143.6 40.5,143.6 "/>
<rect x="55.4" y="124.5" class="st1" width="4.7" height="19.1"/>
<path class="st1" d="M83,143.6c-4.4,0.1-4.4,0.1-4.4,0.1v-12.5c0,0-0.6-2.5-3.6-2.5s-3.9,2.9-3.9,2.9c0,0,0,12.2,0,12.2h-4.9l0-19.2
	h3.3l1.4,1.7c0,0,7.9-5.7,12.1,3.3"/>
<path class="st1" d="M97.9,124.2c-5.4,0-9.8,4.4-9.8,9.8c0,5.4,4.4,9.8,9.8,9.8s9.8-4.4,9.8-9.8C107.7,128.6,103.3,124.2,97.9,124.2
	z M97.9,139.6c-3.1,0-5.5-2.5-5.5-5.6s2.5-5.5,5.5-5.5s5.5,2.5,5.5,5.5S101,139.6,97.9,139.6z"/>
</svg>
