<svg width="66" height="66" viewBox="0 0 66 66" fill="none" xmlns="http://www.w3.org/2000/svg">
<path d="M60.3437 29.7191C60.3442 28.7533 60.0889 27.8045 59.6035 26.9695C59.1182 26.1344 58.4202 25.4429 57.5807 24.9653C56.7412 24.4877 55.7902 24.2411 54.8244 24.2506C53.8586 24.2601 52.9125 24.5254 52.0826 25.0195C51.508 23.8991 50.5619 23.0132 49.4062 22.5136V19.4576L53.8252 21.6671C54.3967 21.9529 55.0317 22.0878 55.67 22.0591C56.3083 22.0304 56.9287 21.839 57.4722 21.5031C58.0157 21.1672 58.4643 20.6979 58.7754 20.1398C59.0866 19.5818 59.2499 18.9534 59.2499 18.3145C59.2485 17.6001 59.0606 16.8985 58.7048 16.279C58.349 15.6595 57.8377 15.1437 57.2213 14.7825L32.4573 0.336869C32.29 0.239288 32.0998 0.187869 31.9062 0.187866H20.4218C19.4065 0.187866 18.4328 0.591185 17.7149 1.3091C16.997 2.02701 16.5937 3.00071 16.5937 4.01599C16.5937 5.03127 16.997 6.00497 17.7149 6.72288C18.4328 7.4408 19.4065 7.84412 20.4218 7.84412H26.6141C24.4036 10.1487 23.1653 13.2159 23.1562 16.4092V20.4944L17.5164 11.6319C17.4125 11.4686 17.2671 11.3358 17.0951 11.2471C16.9231 11.1584 16.7306 11.1169 16.5373 11.1268C16.344 11.1368 16.1568 11.1979 15.9949 11.3039C15.8329 11.4098 15.702 11.5569 15.6154 11.73L13.8203 15.3203L10.2965 14.4393C10.1352 14.399 9.96689 14.3959 9.80429 14.4304C9.64169 14.4649 9.4891 14.536 9.35809 14.6383C9.22708 14.7406 9.1211 14.8714 9.04821 15.0208C8.97532 15.1701 8.93743 15.3342 8.93741 15.5004V19.0214L5.39087 19.908C5.19492 19.957 5.01636 20.0593 4.87499 20.2035C4.73361 20.3478 4.63494 20.5283 4.58991 20.7252C4.54488 20.9221 4.55525 21.1277 4.61987 21.319C4.68449 21.5104 4.80084 21.6801 4.95602 21.8094L9.19763 25.3441H5.65617C5.48635 25.3441 5.31886 25.3837 5.16697 25.4596L0.791971 27.6471C0.62063 27.7328 0.4748 27.862 0.369076 28.0217C0.263353 28.1815 0.201444 28.3662 0.189547 28.5574C0.17765 28.7486 0.216182 28.9396 0.301285 29.1112C0.386389 29.2829 0.51508 29.4291 0.674477 29.5354L2.84556 30.9828L0.507719 33.3207C0.3759 33.4526 0.279965 33.6159 0.229024 33.7952C0.178083 33.9746 0.173827 34.164 0.21666 34.3454C0.259492 34.5268 0.347991 34.6943 0.473755 34.8319C0.599519 34.9696 0.758372 35.0728 0.935232 35.1317L3.11606 35.8586L1.35941 40.2504C1.28733 40.4306 1.26447 40.6267 1.2932 40.8186C1.32192 41.0105 1.40119 41.1913 1.52286 41.3424C1.64453 41.4936 1.80423 41.6097 1.98557 41.6788C2.16691 41.7478 2.36336 41.7674 2.55476 41.7355L9.11726 40.6417C9.37562 40.5987 9.60994 40.4643 9.77762 40.2631L11.8211 37.811L10.0774 43.6236C10.0258 43.7951 10.0173 43.9767 10.0524 44.1524L11.1461 49.6211C11.1814 49.7973 11.2595 49.9621 11.3735 50.1009C11.4876 50.2398 11.6341 50.3484 11.8001 50.4171C11.9661 50.4859 12.1465 50.5127 12.3253 50.4952C12.5041 50.4776 12.6759 50.4163 12.8254 50.3167L14.9151 48.9235L15.556 50.8462C15.6092 51.0058 15.6984 51.1509 15.8168 51.2704C15.9352 51.3898 16.0796 51.4803 16.2387 51.5349C16.3978 51.5895 16.5673 51.6066 16.7341 51.5851C16.9009 51.5635 17.0604 51.5037 17.2004 51.4104L19.6473 49.7792L23.3958 54.4649C23.4983 54.593 23.6283 54.6964 23.7761 54.7674C23.924 54.8385 24.0859 54.8754 24.2499 54.8754C24.414 54.8754 24.5759 54.8385 24.7237 54.7674C24.8716 54.6964 25.0015 54.593 25.104 54.4649L28.8526 49.7792L31.2995 51.4104L32.5129 49.5903L29.2316 47.4028C29.0039 47.251 28.7275 47.1901 28.4571 47.2321C28.1867 47.2741 27.9418 47.4159 27.7708 47.6296L25.3437 50.6636V27.6199L26.8479 28.8232L28.2145 27.1151L25.3437 24.8184V24.5685L31.7918 14.4358L33.1154 17.083C33.2268 17.3055 33.4107 17.4834 33.6368 17.5873C33.8628 17.6913 34.1175 17.7152 34.359 17.655L37.3749 16.9009V19.8751C37.3749 20.119 37.4565 20.3559 37.6066 20.5482C37.7567 20.7405 37.9667 20.877 38.2034 20.9362L40.3909 21.4831L40.9215 19.3609L39.5624 19.0211V15.5001C39.5624 15.3339 39.5245 15.1699 39.4516 15.0205C39.3787 14.8711 39.2728 14.7403 39.1418 14.638C39.0107 14.5357 38.8581 14.4646 38.6955 14.4302C38.533 14.3957 38.3646 14.3987 38.2034 14.439L34.6795 15.32L32.8844 11.7297C32.7979 11.5566 32.6669 11.4096 32.505 11.3036C32.343 11.1976 32.1558 11.1365 31.9625 11.1266C31.7692 11.1166 31.5768 11.1581 31.4047 11.2468C31.2327 11.3356 31.0874 11.4684 30.9834 11.6317L25.3437 20.4942V16.4092C25.3486 14.7646 25.75 13.1454 26.514 11.689C27.278 10.2326 28.3819 8.98187 29.7321 8.04293L42.8437 16.1115V24.2504H42.8523C42.6678 24.4942 42.5041 24.753 42.3628 25.0241C41.5783 24.5553 40.6887 24.2907 39.7754 24.2546C38.8621 24.2185 37.9544 24.4121 37.1353 24.8176C36.3162 25.223 35.6118 25.8275 35.0868 26.5756C34.5617 27.3237 34.2326 28.1915 34.1297 29.0997C33.4487 28.7965 32.7128 28.6357 31.9674 28.6272C31.2219 28.6188 30.4826 28.7629 29.7949 29.0506C29.1072 29.3384 28.4855 29.7637 27.9682 30.3005C27.4509 30.8373 27.0488 31.4742 26.7866 32.1721C26.5245 32.8699 26.4078 33.6141 26.4438 34.3587C26.4797 35.1033 26.6676 35.8327 26.9957 36.5021C27.3239 37.1715 27.7855 37.7667 28.3522 38.2511C28.9188 38.7356 29.5785 39.099 30.2908 39.3192C29.9175 40.0695 29.7217 40.8957 29.7187 41.7338C29.7157 42.5719 29.9054 43.3994 30.2733 44.1525C30.6411 44.9055 31.1773 45.5639 31.8402 46.0766C32.5031 46.5894 33.2751 46.9428 34.0964 47.1096C34.0957 47.1461 34.0937 47.1824 34.0937 47.2191C34.0935 47.9681 34.2476 48.7091 34.5463 49.3959C34.8451 50.0827 35.2821 50.7006 35.8302 51.2111C35.4246 51.9718 35.2047 52.8177 35.1884 53.6796C35.1721 54.5415 35.3599 55.3951 35.7365 56.1706C36.1131 56.9461 36.6678 57.6215 37.3553 58.1416C38.0428 58.6618 38.8435 59.012 39.6922 59.1635C39.5263 59.9137 39.5203 60.6903 39.6746 61.4429C39.8289 62.1955 40.1401 62.9071 40.5878 63.5314C41.0355 64.1557 41.6098 64.6787 42.2731 65.0662C42.9365 65.4537 43.674 65.6971 44.4377 65.7805C45.2014 65.864 45.9741 65.7855 46.7055 65.5503C47.4369 65.3152 48.1105 64.9285 48.6824 64.4156C49.2544 63.9027 49.7118 63.275 50.025 62.5735C50.3381 61.872 50.5 61.1124 50.4999 60.3441C50.4999 60.3064 50.4978 60.2691 50.497 60.2315C51.5007 60.4378 52.5421 60.3579 53.5024 60.0007C54.4628 59.6435 55.3034 59.0236 55.9283 58.2116C56.5532 57.3996 56.9373 56.4283 57.0367 55.4085C57.136 54.3887 56.9467 53.3615 56.4902 52.4442C57.4537 52.1466 58.3161 51.5883 58.982 50.8311C59.648 50.0738 60.0915 49.1472 60.2635 48.1535C60.4355 47.1599 60.3294 46.1381 59.9568 45.2011C59.5842 44.264 58.9597 43.4483 58.1524 42.8441C58.9147 42.2716 59.5151 41.5109 59.8948 40.6364C60.0439 40.6485 60.1935 40.6566 60.3437 40.6566C61.7941 40.6566 63.1851 40.0804 64.2106 39.0549C65.2362 38.0293 65.8124 36.6383 65.8124 35.1879C65.8124 33.7375 65.2362 32.3465 64.2106 31.3209C63.1851 30.2953 61.7941 29.7191 60.3437 29.7191L60.3437 29.7191ZM24.2499 24.2504L24.2501 24.2502L24.2503 24.2504H24.2499ZM19.2682 47.4028L17.1785 48.796L16.5376 46.8733C16.4844 46.7137 16.3951 46.5686 16.2767 46.4491C16.1583 46.3297 16.014 46.2392 15.8549 46.1846C15.6958 46.13 15.5263 46.1128 15.3595 46.1344C15.1927 46.156 15.0332 46.2158 14.8932 46.3091L12.9709 47.5906L12.251 43.9909L15.4537 33.3147C15.5262 33.0732 15.513 32.8142 15.4165 32.5814C15.3199 32.3486 15.1459 32.1562 14.9239 32.0369C14.7019 31.9176 14.4455 31.8786 14.198 31.9266C13.9506 31.9746 13.7273 32.1065 13.566 32.3001L8.35716 38.5508L4.11234 39.2582L5.57793 35.5941C5.6333 35.4557 5.6598 35.3075 5.65581 35.1585C5.65182 35.0095 5.61741 34.8629 5.55471 34.7277C5.492 34.5925 5.40232 34.4715 5.29117 34.3722C5.18002 34.2729 5.04975 34.1974 4.90835 34.1503L3.30591 33.6161L5.33587 31.5862C5.45028 31.4718 5.53787 31.3334 5.59233 31.181C5.6468 31.0287 5.66677 30.8661 5.65082 30.7051C5.63487 30.544 5.58339 30.3886 5.50009 30.2498C5.41679 30.1111 5.30374 29.9926 5.16911 29.9028L3.45612 28.7607L5.91438 27.5316H12.2187C12.4435 27.5316 12.6628 27.4624 12.8468 27.3333C13.0308 27.2042 13.1706 27.0216 13.2471 26.8102C13.3237 26.5988 13.3332 26.369 13.2744 26.152C13.2157 25.9351 13.0915 25.7415 12.9188 25.5976L8.01109 21.5078L10.2965 20.9365C10.5331 20.8773 10.7432 20.7407 10.8933 20.5485C11.0434 20.3562 11.1249 20.1193 11.1249 19.8754V16.9012L14.1409 17.6552C14.3823 17.7155 14.6371 17.6918 14.8632 17.5878C15.0892 17.4838 15.2731 17.3058 15.3844 17.0832L16.7081 14.4361L23.1562 24.5688V24.8185L18.098 28.865L19.4644 30.5732L23.1562 27.6198V31.381L18.098 35.4275L19.4644 37.1357L23.1562 34.1823V37.9435L18.098 41.99L19.4644 43.6982L23.1562 40.7448V50.6636L20.729 47.6296C20.558 47.4159 20.3132 47.274 20.0427 47.2321C19.7723 47.1901 19.4959 47.251 19.2682 47.4028ZM58.1562 29.7191C58.1562 30.3681 57.9637 31.0025 57.6032 31.5421C57.2426 32.0817 56.7302 32.5022 56.1306 32.7506C55.531 32.9989 54.8713 33.0639 54.2348 32.9373C53.5983 32.8107 53.0136 32.4982 52.5547 32.0393C52.0958 31.5804 51.7833 30.9958 51.6567 30.3593C51.5301 29.7228 51.5951 29.063 51.8434 28.4634C52.0918 27.8639 52.5123 27.3514 53.0519 26.9909C53.5915 26.6303 54.2259 26.4379 54.8749 26.4379C55.7448 26.4389 56.5789 26.7849 57.194 27.4C57.8091 28.0152 58.1552 28.8492 58.1562 29.7191ZM36.2812 47.2191C36.2812 46.5701 36.4736 45.9358 36.8342 45.3962C37.1947 44.8566 37.7072 44.436 38.3067 44.1876C38.9063 43.9393 39.5661 43.8743 40.2026 44.0009C40.8391 44.1275 41.4237 44.44 41.8826 44.8989C42.3415 45.3578 42.654 45.9425 42.7806 46.579C42.9072 47.2155 42.8422 47.8752 42.5939 48.4748C42.3455 49.0744 41.925 49.5868 41.3854 49.9474C40.8458 50.3079 40.2114 50.5004 39.5624 50.5004C38.6925 50.4994 37.8585 50.1534 37.2433 49.5382C36.6282 48.9231 36.2822 48.0891 36.2812 47.2191ZM36.2812 38.4691C36.2812 37.8201 36.4736 37.1858 36.8342 36.6462C37.1947 36.1066 37.7072 35.686 38.3067 35.4376C38.9063 35.1893 39.5661 35.1243 40.2026 35.2509C40.8391 35.3775 41.4237 35.69 41.8826 36.1489C42.3415 36.6078 42.654 37.1925 42.7806 37.829C42.9072 38.4655 42.8422 39.1252 42.5939 39.7248C42.3455 40.3244 41.925 40.8368 41.3854 41.1974C40.8458 41.5579 40.2114 41.7504 39.5624 41.7504C38.6925 41.7494 37.8585 41.4034 37.2433 40.7882C36.6282 40.1731 36.2822 39.3391 36.2812 38.4691ZM43.9374 42.8441C43.9374 42.1951 44.1299 41.5608 44.4904 41.0212C44.8509 40.4816 45.3634 40.061 45.963 39.8126C46.5625 39.5643 47.2223 39.4993 47.8588 39.6259C48.4953 39.7525 49.08 40.065 49.5389 40.5239C49.9977 40.9828 50.3103 41.5675 50.4369 42.204C50.5635 42.8405 50.4985 43.5002 50.2501 44.0998C50.0018 44.6994 49.5812 45.2118 49.0416 45.5724C48.502 45.9329 47.8676 46.1254 47.2187 46.1254C46.3487 46.1244 45.5147 45.7784 44.8996 45.1632C44.2844 44.5481 43.9384 43.7141 43.9374 42.8441ZM50.4999 34.0941C50.4999 34.7431 50.3075 35.3775 49.9469 35.9171C49.5864 36.4567 49.0739 36.8772 48.4743 37.1256C47.8748 37.3739 47.215 37.4389 46.5785 37.3123C45.942 37.1857 45.3574 36.8732 44.8985 36.4143C44.4396 35.9554 44.1271 35.3708 44.0005 34.7343C43.8739 34.0978 43.9388 33.438 44.1872 32.8384C44.4355 32.2389 44.8561 31.7264 45.3957 31.3659C45.9353 31.0053 46.5697 30.8129 47.2187 30.8129C48.0886 30.8139 48.9226 31.1599 49.5378 31.775C50.1529 32.3902 50.4989 33.2242 50.4999 34.0941ZM47.2187 54.8754C46.5697 54.8754 45.9353 54.6829 45.3957 54.3224C44.8561 53.9618 44.4355 53.4494 44.1872 52.8498C43.9388 52.2502 43.8739 51.5905 44.0005 50.954C44.1271 50.3175 44.4396 49.7328 44.8985 49.2739C45.3574 48.815 45.942 48.5025 46.5785 48.3759C47.215 48.2493 47.8748 48.3143 48.4743 48.5626C49.0739 48.811 49.5864 49.2316 49.9469 49.7712C50.3075 50.3108 50.4999 50.9451 50.4999 51.5941C50.4989 52.4641 50.1529 53.2981 49.5378 53.9132C48.9226 54.5284 48.0886 54.8744 47.2187 54.8754ZM50.3704 26.6229C49.8618 27.3595 49.5429 28.2103 49.4422 29.0997C48.7426 28.787 47.985 28.6254 47.2187 28.6254C46.4524 28.6254 45.6947 28.787 44.9951 29.0997C44.8945 28.2109 44.576 27.3606 44.068 26.6244C44.2675 25.9422 44.682 25.3426 45.2496 24.9149C45.8173 24.4872 46.5079 24.2541 47.2187 24.2504C47.931 24.2474 48.6248 24.4777 49.1939 24.9061C49.763 25.3345 50.1762 25.9375 50.3704 26.6229ZM30.2918 5.81884C30.1195 5.71276 29.9211 5.65661 29.7187 5.65662H20.4218C19.9867 5.65662 19.5694 5.48377 19.2617 5.17609C18.954 4.86841 18.7812 4.45111 18.7812 4.01599C18.7812 3.58087 18.954 3.16357 19.2617 2.85589C19.5694 2.54822 19.9867 2.37537 20.4218 2.37537H31.6104L56.119 16.672C56.4056 16.84 56.6435 17.0798 56.8089 17.3679C56.9744 17.656 57.0618 17.9823 57.0624 18.3145C57.0624 18.5806 56.9944 18.8422 56.8649 19.0746C56.7353 19.307 56.5485 19.5024 56.3222 19.6422C56.0959 19.7821 55.8376 19.8618 55.5718 19.8738C55.306 19.8857 55.0416 19.8296 54.8036 19.7106L49.4062 17.0119V14.4066H47.2187V22.0629C46.4652 22.0633 45.7201 22.2212 45.0312 22.5265V15.5004C45.0312 15.3136 44.9833 15.1299 44.8922 14.9668C44.8011 14.8037 44.6697 14.6667 44.5106 14.5688L30.2918 5.81884ZM39.5624 26.4379C40.2114 26.4379 40.8458 26.6303 41.3854 26.9909C41.925 27.3514 42.3455 27.8639 42.5939 28.4634C42.8422 29.063 42.9072 29.7228 42.7806 30.3593C42.654 30.9958 42.3415 31.5804 41.8826 32.0393C41.4237 32.4982 40.8391 32.8107 40.2026 32.9373C39.5661 33.0639 38.9063 32.9989 38.3067 32.7506C37.7072 32.5022 37.1947 32.0817 36.8342 31.5421C36.4736 31.0025 36.2812 30.3681 36.2812 29.7191C36.2822 28.8492 36.6282 28.0152 37.2433 27.4C37.8585 26.7849 38.6925 26.4389 39.5624 26.4379ZM28.6249 34.0941C28.6249 33.4451 28.8174 32.8107 29.1779 32.2711C29.5385 31.7316 30.0509 31.311 30.6505 31.0626C31.2501 30.8143 31.9098 30.7493 32.5463 30.8759C33.1828 31.0025 33.7675 31.315 34.2264 31.7739C34.6852 32.2328 34.9978 32.8175 35.1244 33.454C35.251 34.0905 35.186 34.7502 34.9376 35.3498C34.6893 35.9494 34.2687 36.4618 33.7291 36.8224C33.1895 37.1829 32.5551 37.3754 31.9062 37.3754C31.0362 37.3744 30.2022 37.0284 29.5871 36.4132C28.9719 35.7981 28.6259 34.9641 28.6249 34.0941ZM34.5778 44.9739C33.9978 44.8645 33.458 44.6006 33.0155 44.21C32.573 43.8194 32.2441 43.3166 32.0635 42.7547C31.8829 42.1928 31.8572 41.5925 31.9893 41.0172C32.1214 40.4419 32.4063 39.913 32.814 39.4861C33.2676 39.41 33.7098 39.2764 34.1297 39.0885C34.2144 39.8283 34.4493 40.5429 34.8199 41.1887C35.1905 41.8345 35.689 42.3978 36.285 42.8441C35.546 43.3994 34.9589 44.1319 34.5778 44.9739H34.5778ZM40.6562 57.0629C40.1011 57.0633 39.5551 56.9228 39.0691 56.6546C38.5832 56.3864 38.1733 55.9992 37.8779 55.5293C37.5825 55.0594 37.4112 54.5222 37.3801 53.968C37.3489 53.4139 37.459 52.8609 37.7 52.3609C39.0296 52.8431 40.4945 52.7903 41.786 52.2135C41.9129 53.3293 42.3815 54.3785 43.1276 55.2177C42.1457 55.5847 41.2892 56.2249 40.6592 57.0628L40.6562 57.0629ZM45.0312 63.6254C44.3822 63.6254 43.7478 63.4329 43.2082 63.0724C42.6686 62.7118 42.248 62.1994 41.9997 61.5998C41.7513 61.0002 41.6864 60.3405 41.813 59.704C41.9396 59.0675 42.2521 58.4828 42.711 58.0239C43.1699 57.565 43.7545 57.2525 44.391 57.1259C45.0275 56.9993 45.6873 57.0643 46.2868 57.3126C46.8864 57.561 47.3989 57.9816 47.7594 58.5212C48.12 59.0608 48.3124 59.6951 48.3124 60.3441C48.3114 61.2141 47.9654 62.0481 47.3503 62.6632C46.7351 63.2784 45.9011 63.6244 45.0312 63.6254ZM51.5937 58.1566C50.9376 58.156 50.2967 57.959 49.7535 57.5911C49.572 57.281 49.3606 56.9894 49.1222 56.7205C50.0686 56.3673 50.899 55.7595 51.5217 54.9642C52.1445 54.1689 52.5354 53.217 52.6514 52.2135C53.0713 52.4014 53.5134 52.535 53.9671 52.6111C54.4107 53.0757 54.7082 53.6604 54.8225 54.2925C54.9369 54.9247 54.8631 55.5765 54.6103 56.1671C54.3575 56.7577 53.9369 57.261 53.4007 57.6147C52.8644 57.9684 52.2361 58.1568 51.5937 58.1566ZM58.1562 47.2191C58.1562 47.8681 57.9637 48.5025 57.6032 49.0421C57.2426 49.5817 56.7302 50.0022 56.1306 50.2506C55.531 50.4989 54.8713 50.5639 54.2348 50.4373C53.5983 50.3107 53.0136 49.9982 52.5547 49.5393C52.0958 49.0804 51.7833 48.4958 51.6567 47.8593C51.5301 47.2228 51.5951 46.563 51.8434 45.9634C52.0918 45.3639 52.5123 44.8514 53.0519 44.4909C53.5915 44.1303 54.2259 43.9379 54.8749 43.9379C55.7448 43.9389 56.5789 44.2849 57.194 44.9C57.8091 45.5152 58.1552 46.3492 58.1562 47.2191ZM54.8749 41.7504C54.2259 41.7504 53.5915 41.5579 53.0519 41.1974C52.5123 40.8368 52.0918 40.3244 51.8434 39.7248C51.5951 39.1252 51.5301 38.4655 51.6567 37.829C51.7833 37.1925 52.0958 36.6078 52.5547 36.1489C53.0136 35.69 53.5983 35.3775 54.2348 35.2509C54.8713 35.1243 55.531 35.1893 56.1306 35.4376C56.7302 35.686 57.2426 36.1066 57.6032 36.6462C57.9637 37.1858 58.1562 37.8201 58.1562 38.4691C58.1552 39.3391 57.8091 40.1731 57.194 40.7882C56.5789 41.4034 55.7448 41.7494 54.8749 41.7504ZM60.3437 38.4691C60.3436 37.6197 60.1455 36.7821 59.7651 36.0226C59.3847 35.2632 58.8325 34.6028 58.1524 34.0941C58.8983 33.5337 59.4894 32.7928 59.8701 31.941C60.0269 31.9182 60.1852 31.9067 60.3437 31.9066C61.2139 31.9066 62.0485 32.2523 62.6639 32.8677C63.2792 33.483 63.6249 34.3176 63.6249 35.1879C63.6249 36.0581 63.2792 36.8927 62.6639 37.5081C62.0485 38.1234 61.2139 38.4691 60.3437 38.4691H60.3437Z" fill="#DA9F89"/>
</svg>
